[Header]
FileType HTR
DataType HTRS
FileVersion 1
NumSegments 64
NumFrames 4
DataFrameRate 24
EulerRotationOrder ZYX
CalibrationUnits mm
RotationUnits Degrees
GlobalAxisofGravity Y
BoneLengthAxis Y
ScaleFactor 1.0
[SegmentNames&Hierarchy]
Hips	GLOBAL
Spine	Hips
Spine1	Spine
Spine2	Spine1
Neck	Spine2
Head	Neck
LeftEye	Head
RightEye	Head
LeftShoulder	Spine2
LeftArm	LeftShoulder
LeftForeArm	LeftArm
LeftHand	LeftForeArm
LeftHandThumb1	LeftHand
LeftHandThumb2	LeftHandThumb1
LeftHandThumb3	LeftHandThumb2
LeftHandThumb4	LeftHandThumb3
LeftHandIndex1	LeftHand
LeftHandIndex2	LeftHandIndex1
LeftHandIndex3	LeftHandIndex2
LeftHandIndex4	LeftHandIndex3
LeftHandMiddle1	LeftHand
LeftHandMiddle2	LeftHandMiddle1
LeftHandMiddle3	LeftHandMiddle2
LeftHandMiddle4	LeftHandMiddle3
LeftHandRing1	LeftHand
LeftHandRing2	LeftHandRing1
LeftHandRing3	LeftHandRing2
LeftHandRing4	LeftHandRing3
LeftHandPinky1	LeftHand
LeftHandPinky2	LeftHandPinky1
LeftHandPinky3	LeftHandPinky2
LeftHandPinky4	LeftHandPinky3
RightShoulder	Spine2
RightArm	RightShoulder
RightForeArm	RightArm
RightHand	RightForeArm
RightHandPinky1	RightHand
RightHandPinky2	RightHandPinky1
RightHandPinky3	RightHandPinky2
RightHandPinky4	RightHandPinky3
RightHandRing1	RightHand
RightHandRing2	RightHandRing1
RightHandRing3	RightHandRing2
RightHandRing4	RightHandRing3
RightHandMiddle1	RightHand
RightHandMiddle2	RightHandMiddle1
RightHandMiddle3	RightHandMiddle2
RightHandMiddle4	RightHandMiddle3
RightHandIndex1	RightHand
RightHandIndex2	RightHandIndex1
RightHandIndex3	RightHandIndex2
RightHandIndex4	RightHandIndex3
RightHandThumb1	RightHand
RightHandThumb2	RightHandThumb1
RightHandThumb3	RightHandThumb2
RightHandThumb4	RightHandThumb3
LeftUpLeg	Hips
LeftLeg	LeftUpLeg
LeftFoot	LeftLeg
LeftToeBase	LeftFoot
RightUpLeg	Hips
RightLeg	RightUpLeg
RightFoot	RightLeg
RightToeBase	RightFoot
[BasePosition]
Hips	0	0	0	0	0	0	1
Spine	0	0	0	0	0	0	1
Spine1	0	0	0	0	0	0	1
Spine2	0	0	0	0	0	0	1
Neck	0	0	0	0	0	0	1
Head	0	0	0	0	0	0	1
LeftEye	0	0	0	0	0	0	1
RightEye	0	0	0	0	0	0	1
LeftShoulder	0	0	0	0	0	0	1
LeftArm	0	0	0	0	0	0	1
LeftForeArm	0	0	0	0	0	0	1
LeftHand	0	0	0	0	0	0	1
LeftHandThumb1	0	0	0	0	0	0	1
LeftHandThumb2	0	0	0	0	0	0	1
LeftHandThumb3	0	0	0	0	0	0	1
LeftHandThumb4	0	0	0	0	0	0	1
LeftHandIndex1	0	0	0	0	0	0	1
LeftHandIndex2	0	0	0	0	0	0	1
LeftHandIndex3	0	0	0	0	0	0	1
LeftHandIndex4	0	0	0	0	0	0	1
LeftHandMiddle1	0	0	0	0	0	0	1
LeftHandMiddle2	0	0	0	0	0	0	1
LeftHandMiddle3	0	0	0	0	0	0	1
LeftHandMiddle4	0	0	0	0	0	0	1
LeftHandRing1	0	0	0	0	0	0	1
LeftHandRing2	0	0	0	0	0	0	1
LeftHandRing3	0	0	0	0	0	0	1
LeftHandRing4	0	0	0	0	0	0	1
LeftHandPinky1	0	0	0	0	0	0	1
LeftHandPinky2	0	0	0	0	0	0	1
LeftHandPinky3	0	0	0	0	0	0	1
LeftHandPinky4	0	0	0	0	0	0	1
RightShoulder	0	0	0	0	0	0	1
RightArm	0	0	0	0	0	0	1
RightForeArm	0	0	0	0	0	0	1
RightHand	0	0	0	0	0	0	1
RightHandPinky1	0	0	0	0	0	0	1
RightHandPinky2	0	0	0	0	0	0	1
RightHandPinky3	0	0	0	0	0	0	1
RightHandPinky4	0	0	0	0	0	0	1
RightHandRing1	0	0	0	0	0	0	1
RightHandRing2	0	0	0	0	0	0	1
RightHandRing3	0	0	0	0	0	0	1
RightHandRing4	0	0	0	0	0	0	1
RightHandMiddle1	0	0	0	0	0	0	1
RightHandMiddle2	0	0	0	0	0	0	1
RightHandMiddle3	0	0	0	0	0	0	1
RightHandMiddle4	0	0	0	0	0	0	1
RightHandIndex1	0	0	0	0	0	0	1
RightHandIndex2	0	0	0	0	0	0	1
RightHandIndex3	0	0	0	0	0	0	1
RightHandIndex4	0	0	0	0	0	0	1
RightHandThumb1	0	0	0	0	0	0	1
RightHandThumb2	0	0	0	0	0	0	1
RightHandThumb3	0	0	0	0	0	0	1
RightHandThumb4	0	0	0	0	0	0	1
LeftUpLeg	0	0	0	0	0	0	1
LeftLeg	0	0	0	0	0	0	1
LeftFoot	0	0	0	0	0	0	1
LeftToeBase	0	0	0	0	0	0	1
RightUpLeg	0	0	0	0	0	0	1
RightLeg	0	0	0	0	0	0	1
RightFoot	0	0	0	0	0	0	1
RightToeBase	0	0	0	0	0	0	1
[Hips]
149	39.91689682	1026.585571	125.8900528	0.4667506218	-3.416542768	-7.845812798	1.0
150	0.9694349766	1034.423828	137.0813599	1.441556096	-0.737406373	-6.326066494	1.0
151	-35.61433411	1022.703491	145.4777069	1.810747981	2.271025896	-5.259184837	1.0
152	-67.46479034	998.3135986	137.976059	1.018888235	4.691671371	-6.482810974	1.0
[Spine]
149	0	101.8159943	1.315000057	3.846057177	-5.11857605	1.659468889	1.0
150	0	101.8159943	1.315000057	1.908036828	-5.28460598	-1.376985312	1.0
151	0	101.8159943	1.315000057	0.9355441332	-5.610823631	-2.594492912	1.0
152	0	101.8159943	1.315000057	2.277079344	-5.888577938	-0.3658833504	1.0
[Spine1]
149	0	100.8349991	-10.00800037	2.834237337	-0.7609444261	0.633069396	1.0
150	0	100.8349991	-10.00800037	1.444565177	-0.8181458712	0.2413048446	1.0
151	0	100.8349991	-10.00800037	0.9596943259	-0.8710814714	0.3240008056	1.0
152	0	100.8349991	-10.00800037	1.693903923	-0.9035689831	0.568467021	1.0
[Spine2]
149	0	91	-13.73399925	2.824764252	-0.7440749407	0.6051117778	1.0
150	0	91	-13.73399925	1.431379676	-0.813587606	0.2289931923	1.0
151	0	91	-13.73399925	0.948043704	-0.8692194819	0.3157028258	1.0
152	0	91	-13.73399925	1.68499434	-0.8933074474	0.5498827696	1.0
[Neck]
149	0	166.7169952	-25.16200066	0.3165380359	-4.625921249	8.128793716	1.0
150	0	166.7169952	-25.16200066	0.6895772815	-5.46773386	11.54981613	1.0
151	0	166.7169952	-25.16200066	0.02394792065	-5.210074902	11.7427454	1.0
152	0	166.7169952	-25.16200066	-0.4549168348	-3.713960171	9.164166451	1.0
[Head]
149	0	96.17900085	16.84999847	-8.175040245	-12.64326096	4.100141048	1.0
150	0	96.17900085	16.84999847	-2.708608866	-12.17431259	1.637237787	1.0
151	0	96.17900085	16.84999847	-0.1719488055	-10.7020216	0.3692341745	1.0
152	0	96.17900085	16.84999847	-4.139577866	-6.602407932	0.3058460355	1.0
[LeftEye]
149	30.6760006	64.09500122	92.83599854	0	0	0	1.0
150	30.6760006	64.09500122	92.83599854	0	0	0	1.0
151	30.6760006	64.09500122	92.83599854	0	0	0	1.0
152	30.6760006	64.09500122	92.83599854	0	0	0	1.0
[RightEye]
149	-30.6760006	64.09500122	92.83499908	0	0	0	1.0
150	-30.6760006	64.09500122	92.83499908	0	0	0	1.0
151	-30.6760006	64.09500122	92.83499908	0	0	0	1.0
152	-30.6760006	64.09500122	92.83499908	0	0	0	1.0
[LeftShoulder]
149	45.70400238	109.4599991	-26.28000069	2.565244436	-24.06270981	1.798904538	1.0
150	45.70400238	109.4599991	-26.28000069	3.118242979	-24.99967194	-1.24440968	1.0
151	45.70400238	109.4599991	-26.28000069	3.645192862	-24.51985741	-3.993247271	1.0
152	45.70400238	109.4599991	-26.28000069	3.613900661	-23.59077454	-3.736737728	1.0
[LeftArm]
149	105.923996	-5.24600029	-22.32099915	6.366161823	-56.25672913	-9.976336479	1.0
150	105.923996	-5.24600029	-22.32099915	11.41170692	-53.24013901	-7.487766266	1.0
151	105.923996	-5.24600029	-22.32099915	14.88145256	-49.53219986	-8.65844059	1.0
152	105.923996	-5.24600029	-22.32099915	14.38686085	-45.53827286	-13.13938141	1.0
[LeftForeArm]
149	278.414978	-0.0009999999311	0	-1.525878906e-05	-98.36779785	-0.0001831054688	1.0
150	278.414978	-0.0009999999311	0	-2.861477028e-11	-98.76673126	-0.0001983642142	1.0
151	278.414978	-0.0009999999311	0	0	-101.7359619	-0.0001983642578	1.0
152	278.414978	-0.0009999999311	0	-1.017250997e-05	-103.483139	-0.0001792908006	1.0
[LeftHand]
149	283.2879944	0	0	16.68074989	-14.16908646	-13.90133667	1.0
150	283.2879944	0	0	8.390254974	-13.75667572	-14.0401392	1.0
151	283.2879944	0	0	5.154551029	-13.42077827	-15.51224422	1.0
152	283.2879944	0	0	9.442018509	-14.48794937	-17.00178528	1.0
[LeftHandThumb1]
149	24.6609993	-15.75	26.8239994	-1.441466451	-8.319257736	8.653961182	1.0
150	24.6609993	-15.75	26.8239994	-1.441469193	-8.319260597	8.653964043	1.0
151	24.6609993	-15.75	26.8239994	-1.44146502	-8.319264412	8.653964043	1.0
152	24.6609993	-15.75	26.8239994	-1.441466928	-8.319267273	8.653963089	1.0
[LeftHandThumb2]
149	32.29800034	-18.64699936	18.64699936	-0.9986060858	48.03615189	-30.10181618	1.0
150	32.29800034	-18.64699936	18.64699936	-0.9986041188	48.03616333	-30.1018219	1.0
151	32.29800034	-18.64699936	18.64699936	-0.9985982776	48.03615952	-30.10183144	1.0
152	32.29800034	-18.64699936	18.64699936	-0.9986022711	48.03615952	-30.10183334	1.0
[LeftHandThumb3]
149	26.52600098	-15.31499958	15.31499958	7.522171974	50.02408218	24.38755798	1.0
150	26.52600098	-15.31499958	15.31499958	7.522171021	50.02409363	24.3875618	1.0
151	26.52600098	-15.31499958	15.31499958	7.522174358	50.02407837	24.38754654	1.0
152	26.52600098	-15.31499958	15.31499958	7.522174835	50.02408218	24.38755417	1.0
[LeftHandThumb4]
149	19.54599953	-11.28499985	11.28499985	0	0	0	1.0
150	19.54599953	-11.28499985	11.28499985	0	0	0	1.0
151	19.54599953	-11.28499985	11.28499985	0	0	0	1.0
152	19.54599953	-11.28499985	11.28499985	0	0	0	1.0
[LeftHandIndex1]
149	91.09299469	-5.170999527	22.60099792	-1.70693171	9.272190094	-79.1252594	1.0
150	91.09299469	-5.170999527	22.60099792	-1.706938267	9.272184372	-79.12530518	1.0
151	91.09299469	-5.170999527	22.60099792	-1.706925869	9.272186279	-79.12527466	1.0
152	91.09299469	-5.170999527	22.60099792	-1.706927776	9.272186279	-79.12528229	1.0
[LeftHandIndex2]
149	36.76399994	0	0	-5.084238052	5.778057575	-82.67964935	1.0
150	36.76399994	0	0	-5.084243774	5.77806139	-82.67964172	1.0
151	36.76399994	0	0	-5.084238052	5.77806282	-82.67963409	1.0
152	36.76399994	0	0	-5.084237099	5.77806282	-82.67962646	1.0
[LeftHandIndex3]
149	28.83100128	0	0	-6.44968462	5.79175806	-96.16447449	1.0
150	28.83100128	0	0	-6.449683666	5.791759014	-96.16448975	1.0
151	28.83100128	0	0	-6.449678898	5.791753769	-96.16448212	1.0
152	28.83100128	0	0	-6.449676037	5.791752815	-96.16448212	1.0
[LeftHandIndex4]
149	23.92700005	0	0	0	0	0	1.0
150	23.92700005	0	0	0	0	0	1.0
151	23.92700005	0	0	0	0	0	1.0
152	23.92700005	0	0	0	0	0	1.0
[LeftHandMiddle1]
149	95.33399963	0	0	-6.494760036	5.273264885	-74.30393219	1.0
150	95.33399963	0	0	-6.494764805	5.273259163	-74.30394745	1.0
151	95.33399963	0	0	-6.494757175	5.273256302	-74.30394745	1.0
152	95.33399963	0	0	-6.494758606	5.273258209	-74.30393982	1.0
[LeftHandMiddle2]
149	36.98199844	0	0	-7.583499432	5.554388046	-107.596611	1.0
150	36.98199844	0	0	-7.583500385	5.554380417	-107.596611	1.0
151	36.98199844	0	0	-7.583499432	5.554389477	-107.5966034	1.0
152	36.98199844	0	0	-7.583497524	5.554389477	-107.5966034	1.0
[LeftHandMiddle3]
149	29.50900078	0	0	-4.044085503	5.547130108	-72.16719818	1.0
150	29.50900078	0	0	-4.044091702	5.547125816	-72.16720581	1.0
151	29.50900078	0	0	-4.044086456	5.54712677	-72.16722107	1.0
152	29.50900078	0	0	-4.044082642	5.547124863	-72.16721344	1.0
[LeftHandMiddle4]
149	28.3390007	0	0	0	0	0	1.0
150	28.3390007	0	0	0	0	0	1.0
151	28.3390007	0	0	0	0	0	1.0
152	28.3390007	0	0	0	0	0	1.0
[LeftHandRing1]
149	91.04499817	-0.4390000105	-18.65100098	-7.093597889	2.507957697	-79.7666626	1.0
150	91.04499817	-0.4390000105	-18.65100098	-7.093595505	2.507953167	-79.76667786	1.0
151	91.04499817	-0.4390000105	-18.65100098	-7.093590736	2.507954597	-79.76667023	1.0
152	91.04499817	-0.4390000105	-18.65100098	-7.093590736	2.507956028	-79.7666626	1.0
[LeftHandRing2]
149	31.54000092	0	0	-6.249153137	5.809813976	-94.18070221	1.0
150	31.54000092	0	0	-6.249157429	5.809813976	-94.18070221	1.0
151	31.54000092	0	0	-6.249155521	5.809817314	-94.18067932	1.0
152	31.54000092	0	0	-6.249155045	5.809818745	-94.18069458	1.0
[LeftHandRing3]
149	29.37700081	0	0	-2.898617268	5.038872719	-59.79805374	1.0
150	29.37700081	0	0	-2.898619175	5.038871765	-59.79808426	1.0
151	29.37700081	0	0	-2.898616314	5.038867474	-59.79804611	1.0
152	29.37700081	0	0	-2.898615122	5.038868904	-59.79805374	1.0
[LeftHandRing4]
149	26.47500038	0	0	0	0	0	1.0
150	26.47500038	0	0	0	0	0	1.0
151	26.47500038	0	0	0	0	0	1.0
152	26.47500038	0	0	0	0	0	1.0
[LeftHandPinky1]
149	80.77799988	-4.887000084	-38.06099701	-15.74281883	5.236328125	-84.96305847	1.0
150	80.77799988	-4.887000084	-38.06099701	-15.74281883	5.23632288	-84.96305847	1.0
151	80.77799988	-4.887000084	-38.06099701	-15.74281502	5.236324787	-84.9630661	1.0
152	80.77799988	-4.887000084	-38.06099701	-15.74281216	5.236326218	-84.96305847	1.0
[LeftHandPinky2]
149	36	0	0	-2.465524197	4.761475563	-54.73119354	1.0
150	36	0	0	-2.465524912	4.761467457	-54.73119736	1.0
151	36	0	0	-2.465523481	4.761470795	-54.73120117	1.0
152	36	0	0	-2.465524197	4.761470795	-54.73118973	1.0
[LeftHandPinky3]
149	21.14200211	0	0	-4.929655075	5.756194592	-81.14134216	1.0
150	21.14200211	0	0	-4.929660797	5.756196499	-81.14134979	1.0
151	21.14200211	0	0	-4.929656029	5.756193161	-81.14134216	1.0
152	21.14200211	0	0	-4.929656029	5.756194592	-81.14134216	1.0
[LeftHandPinky4]
149	19.75699997	0	0	0	0	0	1.0
150	19.75699997	0	0	0	0	0	1.0
151	19.75699997	0	0	0	0	0	1.0
152	19.75699997	0	0	0	0	0	1.0
[RightShoulder]
149	-45.70000076	109.4620056	-26.28000069	-23.93252563	4.262113571	-12.57764053	1.0
150	-45.70000076	109.4620056	-26.28000069	-22.9784317	-3.296388626	-11.47901535	1.0
151	-45.70000076	109.4620056	-26.28000069	-22.37121201	-9.680368423	-12.41551113	1.0
152	-45.70000076	109.4620056	-26.28000069	-22.78914642	-8.510502815	-13.16609764	1.0
[RightArm]
149	-105.9280014	-5.248000145	-22.32099915	-29.86532211	10.18711567	-8.005725861	1.0
150	-105.9280014	-5.248000145	-22.32099915	5.187025547	31.39087868	-7.900780678	1.0
151	-105.9280014	-5.248000145	-22.32099915	28.42172432	31.4910984	-3.29976964	1.0
152	-105.9280014	-5.248000145	-22.32099915	27.46115303	18.80303192	-2.607038498	1.0
[RightForeArm]
149	-278.414978	0	0	-7.621188729e-07	37.8563118	1.942564268e-06	1.0
150	-278.414978	0	0	-1.91441768e-06	-0.0001573479676	7.37130631e-06	1.0
151	-278.414978	0	0	8.670762668e-07	11.84494781	-6.475066129e-06	1.0
152	-278.414978	0	0	-1.57856357e-05	45.43024445	-2.198015409e-06	1.0
[RightHand]
149	-283.2879944	0	0.0009999999311	-37.17580795	-5.712239742	-36.50464249	1.0
150	-283.2879944	0	0.0009999999311	-39.01730347	10.98631763	-18.39484406	1.0
151	-283.2879944	0	0.0009999999311	-4.235122204	21.11704254	-3.674287081	1.0
152	-283.2879944	0	0.0009999999311	11.26545906	13.96465206	-7.770684242	1.0
[RightHandPinky1]
149	-80.76699829	-4.885000229	-38.06000137	-15.18225193	-1.629515886	97.58633423	1.0
150	-80.76699829	-4.885000229	-38.06000137	-15.18224525	-1.629504681	97.58633423	1.0
151	-80.76699829	-4.885000229	-38.06000137	-15.18223476	-1.62949574	97.58634186	1.0
152	-80.76699829	-4.885000229	-38.06000137	-15.18223381	-1.629501224	97.58633423	1.0
[RightHandPinky2]
149	-36	0	0.0009999999311	-1.749804497	-3.626888752	51.51878357	1.0
150	-36	0	0.0009999999311	-1.749813676	-3.626895666	51.51878357	1.0
151	-36	0	0.0009999999311	-1.749823928	-3.626904249	51.51878357	1.0
152	-36	0	0.0009999999311	-1.7498281	-3.626898289	51.51878357	1.0
[RightHandPinky3]
149	-21.14200211	0	0	-1.867236853	-3.717074633	53.33226013	1.0
150	-21.14200211	0	0	-1.867232919	-3.717076302	53.3322525	1.0
151	-21.14200211	0	0	-1.86723876	-3.717080116	53.33224487	1.0
152	-21.14200211	0	0	-1.86724782	-3.717086554	53.33224487	1.0
[RightHandPinky4]
149	-19.75699997	0	0	0	0	0	1.0
150	-19.75699997	0	0	0	0	0	1.0
151	-19.75699997	0	0	0	0	0	1.0
152	-19.75699997	0	0	0	0	0	1.0
[RightHandRing1]
149	-91.03599548	-0.4390000105	-18.65100098	-7.065043926	-0.7973999381	91.91008759	1.0
150	-91.03599548	-0.4390000105	-18.65100098	-7.065031528	-0.7973989844	91.91007996	1.0
151	-91.03599548	-0.4390000105	-18.65100098	-7.065033913	-0.7973994017	91.91007996	1.0
152	-91.03599548	-0.4390000105	-18.65100098	-7.065027714	-0.7974044681	91.91007996	1.0
[RightHandRing2]
149	-31.54000092	0	0	-4.327737331	-4.620634079	86.24685669	1.0
150	-31.54000092	0	0	-4.327744961	-4.620627403	86.24687958	1.0
151	-31.54000092	0	0	-4.327754021	-4.620621681	86.24686432	1.0
152	-31.54000092	0	0	-4.327750206	-4.620624065	86.24687195	1.0
[RightHandRing3]
149	-29.37700081	0	0	-1.156990767	-3.063925982	41.3663559	1.0
150	-29.37700081	0	0	-1.156970859	-3.063934326	41.36634827	1.0
151	-29.37700081	0	0	-1.156960845	-3.06392622	41.36633682	1.0
152	-29.37700081	0	0	-1.156962156	-3.06392765	41.36633301	1.0
[RightHandRing4]
149	-26.47500038	0	0	0	0	0	1.0
150	-26.47500038	0	0	0	0	0	1.0
151	-26.47500038	0	0	0	0	0	1.0
152	-26.47500038	0	0	0	0	0	1.0
[RightHandMiddle1]
149	-95.32500458	0	0	-5.49019289	-4.098511219	73.57291412	1.0
150	-95.32500458	0	0	-5.490197182	-4.098492146	73.57289124	1.0
151	-95.32500458	0	0	-5.490190983	-4.098493576	73.57289124	1.0
152	-95.32500458	0	0	-5.490192413	-4.098500252	73.57289124	1.0
[RightHandMiddle2]
149	-36.98199844	0	0	-6.026573658	-4.415481567	107.5651169	1.0
150	-36.98199844	0	0	-6.026578903	-4.415505886	107.5651093	1.0
151	-36.98199844	0	0	-6.026584625	-4.415496826	107.5651016	1.0
152	-36.98199844	0	0	-6.026582718	-4.415502548	107.5651093	1.0
[RightHandMiddle3]
149	-29.50900078	0	0	-1.287472606	-3.207872629	43.7522583	1.0
150	-29.50900078	0	0	-1.28747046	-3.20784831	43.75226212	1.0
151	-29.50900078	0	0	-1.28746736	-3.207858801	43.7522583	1.0
152	-29.50900078	0	0	-1.287468433	-3.207859755	43.75226212	1.0
[RightHandMiddle4]
149	-28.3390007	0	0.0009999999311	0	0	0	1.0
150	-28.3390007	0	0.0009999999311	0	0	0	1.0
151	-28.3390007	0	0.0009999999311	0	0	0	1.0
152	-28.3390007	0	0.0009999999311	0	0	0	1.0
[RightHandIndex1]
149	-91.08300018	-5.167999744	22.60099792	2.643073559	-5.360727787	51.18567657	1.0
150	-91.08300018	-5.167999744	22.60099792	2.643073559	-5.360713005	51.18568802	1.0
151	-91.08300018	-5.167999744	22.60099792	2.643072844	-5.360716343	51.18567276	1.0
152	-91.08300018	-5.167999744	22.60099792	2.64307642	-5.36071825	51.18568039	1.0
[RightHandIndex2]
149	-36.76399994	0	0	-4.042257309	-4.593084812	82.69343567	1.0
150	-36.76399994	0	0	-4.042263508	-4.593084335	82.6934433	1.0
151	-36.76399994	0	0	-4.042253971	-4.593075752	82.6934433	1.0
152	-36.76399994	0	0	-4.042243004	-4.593078613	82.69343567	1.0
[RightHandIndex3]
149	-28.83100128	0	0	-5.126283169	-4.603981495	96.15283203	1.0
150	-28.83100128	0	0	-5.126283646	-4.60396719	96.15283966	1.0
151	-28.83100128	0	0	-5.12628603	-4.603963375	96.1528244	1.0
152	-28.83100128	0	0	-5.12629509	-4.603966236	96.15283203	1.0
[RightHandIndex4]
149	-23.92700005	0	0	0	0	0	1.0
150	-23.92700005	0	0	0	0	0	1.0
151	-23.92700005	0	0	0	0	0	1.0
152	-23.92700005	0	0	0	0	0	1.0
[RightHandThumb1]
149	-24.64799881	-15.72700024	26.82600021	-2.388235331	10.16858864	-8.287017822	1.0
150	-24.64799881	-15.72700024	26.82600021	-2.388243198	10.16858196	-8.287026405	1.0
151	-24.64799881	-15.72700024	26.82600021	-2.388245583	10.16857719	-8.287028313	1.0
152	-24.64799881	-15.72700024	26.82600021	-2.388241768	10.16858292	-8.287033081	1.0
[RightHandThumb2]
149	-32.29800034	-18.64699936	18.64699936	7.070493698	-37.46694183	0.6013907194	1.0
150	-32.29800034	-18.64699936	18.64699936	7.07049942	-37.46693802	0.6013820767	1.0
151	-32.29800034	-18.64699936	18.64699936	7.070502281	-37.46693039	0.6013779044	1.0
152	-32.29800034	-18.64699936	18.64699936	7.070491314	-37.46694183	0.6013931036	1.0
[RightHandThumb3]
149	-26.52600098	-15.31399918	15.31399918	3.291620493	-34.4118576	-26.10050011	1.0
150	-26.52600098	-15.31399918	15.31399918	3.29163003	-34.41184998	-26.10049438	1.0
151	-26.52600098	-15.31399918	15.31399918	3.291629314	-34.4118576	-26.10048485	1.0
152	-26.52600098	-15.31399918	15.31399918	3.291633129	-34.41184998	-26.10049438	1.0
[RightHandThumb4]
149	-19.54599953	-11.28499985	11.28499985	0	0	0	1.0
150	-19.54599953	-11.28499985	11.28499985	0	0	0	1.0
151	-19.54599953	-11.28499985	11.28499985	0	0	0	1.0
152	-19.54599953	-11.28499985	11.28499985	0	0	0	1.0
[LeftUpLeg]
149	82.07800293	-67.51699829	-15.99599934	-13.32995605	16.06974792	21.33275986	1.0
150	82.07800293	-67.51699829	-15.99599934	-16.62876129	18.43848228	14.71829987	1.0
151	82.07800293	-67.51699829	-15.99599934	-16.85911369	17.01539993	8.182142258	1.0
152	82.07800293	-67.51699829	-15.99599934	-20.70476532	13.21435356	8.753923416	1.0
[LeftLeg]
149	0	-443.7049866	2.845999956	27.67098236	7.166106701	4.0058074	1.0
150	0	-443.7049866	2.845999956	34.55863571	3.145803213	2.481359005	1.0
151	0	-443.7049866	2.845999956	35.86297989	3.764920712	3.445932388	1.0
152	0	-443.7049866	2.845999956	42.42338562	4.558311462	5.666425228	1.0
[LeftFoot]
149	0	-444.2789917	-29.8219986	-3.280016184	0.8319662213	-1.373878956	1.0
150	0	-444.2789917	-29.8219986	-5.815886974	0.003450165736	-7.41647768	1.0
151	0	-444.2789917	-29.8219986	-10.99734974	3.978387117	-9.028087616	1.0
152	0	-444.2789917	-29.8219986	-13.16377068	6.324978828	-9.26973629	1.0
[LeftToeBase]
149	0	-87.28699493	107.1060028	-2.422488451	-1.316342968e-05	-2.250975939e-07	1.0
150	0	-87.28699493	107.1060028	-2.403891802	-6.021065929e-06	-1.73931835e-06	1.0
151	0	-87.28699493	107.1060028	-3.465852261	-4.500880948e-07	-9.203215541e-07	1.0
152	0	-87.28699493	107.1060028	-6.529467583	-0.02285829559	-0.1448713541	1.0
[RightUpLeg]
149	-82.07800293	-67.51699829	-15.99599934	-39.25882339	-21.79395294	-11.79690933	1.0
150	-82.07800293	-67.51699829	-15.99599934	-21.8942337	-12.45645905	-13.42203331	1.0
151	-82.07800293	-67.51699829	-15.99599934	-11.38175011	-6.601943493	-12.41115093	1.0
152	-82.07800293	-67.51699829	-15.99599934	-10.11889553	-6.875355244	-9.478460312	1.0
[RightLeg]
149	0	-443.7049866	2.861999989	67.82977295	-2.054027081	-9.391975403	1.0
150	0	-443.7049866	2.861999989	35.35773468	-5.167305946	-5.094477654	1.0
151	0	-443.7049866	2.861999989	15.50783157	-8.176943779	-3.361859083	1.0
152	0	-443.7049866	2.861999989	18.45517731	-7.687304497	-3.702600241	1.0
[RightFoot]
149	0	-444.2770081	-29.83799934	14.28950977	-20.89453888	10.34069824	1.0
150	0	-444.2770081	-29.83799934	20.9718399	-15.67473412	14.75692749	1.0
151	0	-444.2770081	-29.83799934	24.15859222	-11.19141006	3.560816288	1.0
152	0	-444.2770081	-29.83799934	7.136941433	-10.78010368	10.69607925	1.0
[RightToeBase]
149	0	-87.28699493	107.1060028	3.905355692	-5.527091616e-06	-3.037053602e-06	1.0
150	0	-87.28699493	107.1060028	-0.9726606607	-5.299946224e-06	7.424029263e-06	1.0
151	0	-87.28699493	107.1060028	-18.02075195	1.589127421	6.286660194	1.0
152	0	-87.28699493	107.1060028	-12.86849308	0.9269907475	3.667215824	1.0
[EndOfFile]
